<?xml version="1.0" encoding="UTF-8"?>
<svg version="1.1" xmlns="http://www.w3.org/2000/svg" width="500" height="500">
<path d="M0 0 C12.84854914 -0.35912094 25.69009471 3.46482952 36.640625 10.1171875 C38.31071089 10.78733255 39.99984078 11.41158081 41.703125 11.9921875 C49.09115239 14.60089798 56.4573765 17.38235148 63.390625 21.0546875 C67.86457551 23.36113403 72.58062686 25.02558513 77.29492188 26.76318359 C90.38617059 31.58929721 103.41746062 36.75272391 116.078125 42.6171875 C123.20857104 45.89084996 130.55035599 48.59191932 137.8984375 51.33203125 C143.20496056 53.33316585 148.39462483 55.42765592 153.515625 57.8671875 C160.58706057 61.20456014 167.85207445 63.99599141 175.15576172 66.78222656 C180.85799494 68.97124018 186.41785078 71.3522774 191.96191406 73.91430664 C196.1456083 75.79300346 200.42400995 77.40868032 204.703125 79.0546875 C219.48662389 84.85835501 219.48662389 84.85835501 224.640625 89.1171875 C224.640625 89.7771875 224.640625 90.4371875 224.640625 91.1171875 C225.52621094 91.50777344 225.52621094 91.50777344 226.4296875 91.90625 C234.8194169 96.50133147 239.88217632 107.10144201 242.45703125 115.91015625 C245.36607837 130.00784613 243.67813734 143.61558148 237.703125 156.6171875 C236.89072346 158.44680612 236.08095954 160.27759753 235.2734375 162.109375 C234.84579102 163.07584961 234.41814453 164.04232422 233.97753906 165.03808594 C231.57778628 170.56505491 229.33485672 176.15565873 227.078125 181.7421875 C223.8790782 189.63945312 220.65411791 197.52248214 217.328125 205.3671875 C214.46459155 212.12125099 211.70181062 218.90786584 208.99609375 225.7265625 C207.78114342 228.76568897 206.53399685 231.78756377 205.265625 234.8046875 C203.71501573 238.49613796 202.20380994 242.20059771 200.7265625 245.921875 C200.21101807 247.21992065 200.21101807 247.21992065 199.68505859 248.54418945 C199.01108051 250.24488917 198.33936323 251.9464874 197.67041016 253.64916992 C195.96050055 257.96364906 194.16307265 262.21343169 192.22265625 266.4296875 C189.404319 272.56406378 186.85689744 278.79640453 184.328125 285.0546875 C183.61245361 286.8171582 183.61245361 286.8171582 182.88232422 288.61523438 C180.67924947 294.04795911 178.48918058 299.48556561 176.32421875 304.93359375 C175.97335205 305.8160376 175.62248535 306.69848145 175.26098633 307.60766602 C174.6265143 309.20730742 173.99456981 310.80795529 173.3659668 312.40991211 C171.77006994 316.44134645 170.07152455 320.40120154 168.2578125 324.33984375 C165.35408293 330.66594402 162.74294339 337.09991738 160.140625 343.5546875 C156.27032022 353.12203755 152.34685479 362.66418667 148.35546875 372.18164062 C146.05874887 377.65873364 143.82606044 383.15734316 141.640625 388.6796875 C139.91919001 393.02725324 138.124765 397.31931174 136.140625 401.5546875 C133.78974955 406.61057669 131.83704046 411.77519459 129.95898438 417.02124023 C128.2186146 421.81154676 126.15980106 426.40626639 124.02783203 431.03417969 C121.39972036 436.87504455 119.00575861 442.81592785 116.578125 448.7421875 C113.3637865 456.57920352 110.13175452 464.39819129 106.640625 472.1171875 C105.980625 472.1171875 105.320625 472.1171875 104.640625 472.1171875 C104.516875 472.7153125 104.393125 473.3134375 104.265625 473.9296875 C103.640625 476.1171875 103.640625 476.1171875 101.640625 479.1171875 C100.980625 479.1171875 100.320625 479.1171875 99.640625 479.1171875 C99.40085937 479.70628906 99.16109375 480.29539062 98.9140625 480.90234375 C94.54522479 488.50090504 83.568263 492.49630171 75.640625 495.1171875 C62.58795992 497.85236135 50.23302524 495.99409598 38.08203125 490.84765625 C37.03660156 490.40639404 35.99117188 489.96513184 34.9140625 489.51049805 C33.83382813 489.05070557 32.75359375 488.59091309 31.640625 488.1171875 C30.58617187 487.66964111 29.53171875 487.22209473 28.4453125 486.76098633 C24.10850256 484.91843637 19.77247125 483.07410744 15.43945312 481.22265625 C8.88116891 478.43607229 2.28720407 475.78568044 -4.37670898 473.26171875 C-11.28474495 470.61091474 -18.08334272 467.7262039 -24.796875 464.6171875 C-31.92732104 461.34352504 -39.26910599 458.64245568 -46.6171875 455.90234375 C-51.98326104 453.87875216 -57.23564741 451.7553953 -62.421875 449.3046875 C-71.23404202 445.16707503 -80.30603969 441.68695491 -89.359375 438.1171875 C-114.40316535 428.23076208 -114.40316535 428.23076208 -124.453125 423.45703125 C-128.80978205 421.44851866 -133.26887441 419.71167285 -137.73046875 417.953125 C-143.85553286 415.53552041 -149.9492323 413.04043264 -156.046875 410.5546875 C-157.17496582 410.09553955 -158.30305664 409.6363916 -159.46533203 409.16333008 C-207.24964772 389.68879628 -207.24964772 389.68879628 -215.359375 379.1171875 C-216.046875 376.90625 -216.046875 376.90625 -216.359375 375.1171875 C-217.019375 375.1171875 -217.679375 375.1171875 -218.359375 375.1171875 C-225.31721601 364.08061211 -228.16545316 350.75913016 -225.578125 337.88671875 C-224.45718864 333.06584958 -222.67464751 328.69285649 -220.671875 324.1796875 C-219.9496219 322.51267064 -219.22962301 320.84467556 -218.51171875 319.17578125 C-217.9700708 317.91677002 -217.9700708 317.91677002 -217.41748047 316.63232422 C-215.76476071 312.70377808 -214.24990914 308.72520734 -212.734375 304.7421875 C-210.36267061 298.5390123 -207.74063256 292.53072011 -204.89453125 286.52734375 C-202.36695643 280.91265465 -200.21807715 275.15435108 -198.015625 269.40625 C-196.30030501 264.93584413 -194.46869219 260.52002197 -192.60546875 256.109375 C-191.41632672 253.25394304 -190.26872126 250.38405106 -189.1315918 247.50756836 C-186.82941296 241.68552331 -184.42236353 235.94198612 -181.76953125 230.26953125 C-180.61722429 227.69359852 -179.53548325 225.11234047 -178.48046875 222.49609375 C-178.14128418 221.66303711 -177.80209961 220.82998047 -177.45263672 219.97167969 C-176.78445903 218.32386679 -176.12534151 216.67233944 -175.47705078 215.01660156 C-172.26009136 207.12594637 -168.05231862 200.80023906 -160.984375 195.8671875 C-159.67339844 194.93132812 -159.67339844 194.93132812 -158.3359375 193.9765625 C-151.11045344 189.46300553 -144.21182333 187.06706372 -135.921875 185.1171875 C-134.87016113 184.85502441 -133.81844727 184.59286133 -132.73486328 184.32275391 C-127.91505816 183.13339417 -123.12847016 182.03382975 -118.22265625 181.265625 C-110.40281964 180.14614391 -110.40281964 180.14614391 -104.1640625 175.66015625 C-102.5295571 172.52666977 -101.41719118 169.48725614 -100.359375 166.1171875 C-99.51286524 163.94751786 -98.65868501 161.78082533 -97.796875 159.6171875 C-97.38953125 158.52664062 -96.9821875 157.43609375 -96.5625 156.3125 C-94.63336853 151.18902746 -92.48999398 146.15946098 -90.359375 141.1171875 C-89.71985218 139.59904253 -89.0805452 138.08080662 -88.44140625 136.5625 C-87.39634347 134.08019737 -86.35125471 131.59790581 -85.3059082 129.11572266 C-80.13105057 116.84879879 -80.13105057 116.84879879 -75.13330078 104.5090332 C-74.87790527 103.86409912 -74.62250977 103.21916504 -74.359375 102.5546875 C-74.10526855 101.91297607 -73.85116211 101.27126465 -73.58935547 100.61010742 C-72.11380194 96.91365181 -70.54761763 93.28343619 -68.859375 89.6796875 C-66.50849955 84.62379831 -64.55579046 79.45918041 -62.67773438 74.21313477 C-61.2927078 70.40089788 -59.74401093 66.71418439 -58.04296875 63.03125 C-56.06253301 58.73549003 -54.22688303 54.40241704 -52.45703125 50.015625 C-52.2089975 49.40229309 -51.96096375 48.78896118 -51.70541382 48.15704346 C-50.68580573 45.63435171 -49.6674279 43.11133217 -48.66430664 40.58203125 C-45.6018565 32.87695811 -42.3392683 25.79391285 -37.359375 19.1171875 C-36.245625 17.5703125 -36.245625 17.5703125 -35.109375 15.9921875 C-25.66382633 6.11729571 -13.53409711 0.67222337 0 0 Z " fill="#5CE1E5" transform="translate(244.359375,1.8828125)"/>
<path d="M0 0 C1.5411298 3.95036437 0.39859394 6.76570901 -0.875 10.6875 C-1.42800781 12.42580078 -1.42800781 12.42580078 -1.9921875 14.19921875 C-3 17 -3 17 -4 18 C-4.103125 19.03125 -4.20625 20.0625 -4.3125 21.125 C-5.11275289 25.63551627 -6.57281262 28.16347802 -9 32 C-9.66 32 -10.32 32 -11 32 C-11.66 35.3 -12.32 38.6 -13 42 C-13.66 42 -14.32 42 -15 42 C-15.56618778 44.75005495 -16.06265424 47.46543147 -16.4375 50.25 C-16.7159375 51.61125 -16.7159375 51.61125 -17 53 C-17.99 53.495 -17.99 53.495 -19 54 C-19.309375 54.825 -19.61875 55.65 -19.9375 56.5 C-20.288125 57.325 -20.63875 58.15 -21 59 C-22.485 59.495 -22.485 59.495 -24 60 C-22.03578184 53.95481087 -19.92793044 47.98688635 -17.625 42.0625 C-17.31828369 41.27182129 -17.01156738 40.48114258 -16.69555664 39.66650391 C-14.79396555 34.83323108 -12.67592562 30.22514762 -10.25390625 25.62890625 C-8.26572001 21.46052825 -6.71740854 17.13284288 -5.14233398 12.79443359 C-3.56801663 8.45926302 -1.85205425 4.2246563 0 0 Z " fill="#9AE8EA" transform="translate(172,100)"/>
<path d="M0 0 C0.66 0.33 1.32 0.66 2 1 C-0.41436279 10.35853007 -4.24689693 19.1220903 -8 28 C-8.81385707 29.93693035 -9.62650861 31.87436805 -10.4375 33.8125 C-10.82550781 34.73804688 -11.21351563 35.66359375 -11.61328125 36.6171875 C-12.75679862 39.40672566 -13.87475648 42.20320585 -14.98046875 45.0078125 C-15.33375244 45.90137451 -15.68703613 46.79493652 -16.05102539 47.71557617 C-16.75330621 49.49546452 -17.4518689 51.27682557 -18.14624023 53.05981445 C-19.8096818 57.27296082 -21.48852704 61.20159214 -24 65 C-25.10844919 61.67465243 -24.84454356 59.37817425 -24 56 C-23.34 56 -22.68 56 -22 56 C-22 54.35 -22 52.7 -22 51 C-21.34 51 -20.68 51 -20 51 C-19.34 48.36 -18.68 45.72 -18 43 C-17.34 43 -16.68 43 -16 43 C-15.67 38.71 -15.34 34.42 -15 30 C-14.01 29.67 -13.02 29.34 -12 29 C-10.93224776 27.03533587 -9.93446535 25.03144641 -9 23 C-8.34 22.01 -7.68 21.02 -7 20 C-6.60986284 18.0103005 -6.26797351 16.00980131 -6 14 C-5.34 14 -4.68 14 -4 14 C-3.87625 13.13375 -3.7525 12.2675 -3.625 11.375 C-2.88361866 7.37154078 -1.82419097 3.64838195 0 0 Z " fill="#B2F0F1" transform="translate(417,307)"/>
<path d="M0 0 C-0.33 0.66 -0.66 1.32 -1 2 C1.31 2.33 3.62 2.66 6 3 C6 3.66 6 4.32 6 5 C6.9075 4.95875 7.815 4.9175 8.75 4.875 C11.89640926 4.99601574 13.42156198 5.28104132 16 7 C16.33 7.66 16.66 8.32 17 9 C25.11389361 11.62915312 33.52020288 12.5569115 42 13 C42 13.33 42 13.66 42 14 C27.76947595 14.56837892 16.92328212 11.68293047 4 6 C1.75182655 5.05812825 -0.49812779 4.120494 -2.75 3.1875 C-4.5 2.45833333 -6.25 1.72916667 -8 1 C-8 0.67 -8 0.34 -8 0 C-2.25 -1.125 -2.25 -1.125 0 0 Z " fill="#B6EFF1" transform="translate(272,484)"/>
<path d="M0 0 C0.33 0 0.66 0 1 0 C1 2.64 1 5.28 1 8 C0.34 8 -0.32 8 -1 8 C-1.144375 8.763125 -1.28875 9.52625 -1.4375 10.3125 C-2 13 -2 13 -3 16 C-3.66 16 -4.32 16 -5 16 C-5 18.31 -5 20.62 -5 23 C-5.66 23 -6.32 23 -7 23 C-7.33 24.65 -7.66 26.3 -8 28 C-8.66 28 -9.32 28 -10 28 C-10.33 30.31 -10.66 32.62 -11 35 C-12.485 35.495 -12.485 35.495 -14 36 C-10.65458135 23.52804451 -5.48054535 11.66434652 0 0 Z " fill="#A3EBEC" transform="translate(40,287)"/>
<path d="M0 0 C4.69615374 0.60942453 8.68231099 1.90263154 13.0625 3.6875 C13.71154297 3.95151611 14.36058594 4.21553223 15.02929688 4.48754883 C20.48062182 6.72951901 25.83314876 9.16953413 31.16796875 11.67578125 C34.41620935 13.19461375 37.6927192 14.61555687 41 16 C40.01 16.66 39.02 17.32 38 18 C32.25981962 16.51322431 26.3615095 14.19516421 21.5 10.75 C18.91330292 8.93931205 17.10604815 8.36541743 14 8 C14 7.34 14 6.68 14 6 C12.35 6 10.7 6 9 6 C9 5.34 9 4.68 9 4 C6.03 3.01 3.06 2.02 0 1 C0 0.67 0 0.34 0 0 Z " fill="#AAEDEE" transform="translate(371,50)"/>
<path d="M0 0 C4.48461618 4.48461618 4.13937048 12.94698507 4.25 19 C4.09165451 27.12840174 3.20473596 34.92839861 -1 42 C-1.33 42 -1.66 42 -2 42 C-2 40.35 -2 38.7 -2 37 C-1.34 37 -0.68 37 0 37 C1.01299516 24.44609565 1.10119884 12.54580106 0 0 Z " fill="#A8EBEC" transform="translate(484,113)"/>
<path d="M0 0 C3.71938245 0.60656596 6.73608756 1.67874072 10.125 3.3125 C14.83185271 5.51963229 19.56817089 7.34687556 24.4921875 9.0078125 C27.1997122 10.07901386 29.54489666 11.44246133 32 13 C30 14 30 14 27.375 13.125 C26.26125 12.75375 25.1475 12.3825 24 12 C22.64816969 11.85185421 21.29355255 11.72753705 19.9375 11.625 C15.45695966 10.91380312 14.3736164 9.90287923 11 7 C7.38597504 4.90037471 3.69977378 2.94383911 0 1 C0 0.67 0 0.34 0 0 Z " fill="#A7EBED" transform="translate(432,75)"/>
<path d="M0 0 C0.33 0 0.66 0 1 0 C1.06058594 1.30195313 1.12117188 2.60390625 1.18359375 3.9453125 C1.26804562 5.67188399 1.35269126 7.398446 1.4375 9.125 C1.47681641 9.9809375 1.51613281 10.836875 1.55664062 11.71875 C1.78156402 16.21721792 2.13540883 20.56806207 3 25 C3.66 25 4.32 25 5 25 C6.42258812 28.82320557 7.24042276 31.91281305 7 36 C1.40582726 31.75614482 0.57391352 24.97391549 -0.6875 18.4375 C-1.25842594 12.1573147 -1.27262609 6.20405219 0 0 Z " fill="#B3EEEF" transform="translate(19,338)"/>
<path d="M0 0 C1.13970202 3.85558769 0.5690697 5.28378229 -1 9 C-1.33162526 10.51677782 -1.64262595 12.0381511 -1.9375 13.5625 C-2.68306554 17.11420986 -3.61297007 19.21513175 -6 22 C-6.4640625 23.2375 -6.4640625 23.2375 -6.9375 24.5 C-8.15471587 27.36403734 -9.7049999 28.93449991 -12 31 C-11.19469748 27.16522609 -9.72075709 23.6162619 -8.25 20 C-7.98558105 19.34443115 -7.72116211 18.6888623 -7.44873047 18.01342773 C-5.01238794 11.98964009 -2.52052111 5.98902582 0 0 Z " fill="#95E6E7" transform="translate(191,54)"/>
<path d="M0 0 C1.43797452 4.31392355 -0.46544881 7.18810801 -2.18359375 11.16796875 C-2.51794937 11.96278152 -2.85230499 12.7575943 -3.1967926 13.57649231 C-4.2681023 16.11737813 -5.3526009 18.65239087 -6.4375 21.1875 C-7.16558834 22.90783315 -7.89281295 24.62853213 -8.61914062 26.34960938 C-10.40276089 30.57071853 -12.19823074 34.78660758 -14 39 C-15.09658936 35.71023192 -14.79953138 34.28696233 -14 31 C-13.34 31 -12.68 31 -12 31 C-11.87882812 30.21753906 -11.75765625 29.43507813 -11.6328125 28.62890625 C-11.46523438 27.61699219 -11.29765625 26.60507812 -11.125 25.5625 C-10.96257812 24.55316406 -10.80015625 23.54382813 -10.6328125 22.50390625 C-10.42398437 21.67761719 -10.21515625 20.85132813 -10 20 C-9.34 19.67 -8.68 19.34 -8 19 C-7.2833793 16.68152126 -6.61757973 14.34680297 -6 12 C-5.67 11.34 -5.34 10.68 -5 10 C-4.34 10 -3.68 10 -3 10 C-2.87625 9.278125 -2.7525 8.55625 -2.625 7.8125 C-2.0095069 5.04278106 -1.11555626 2.6029646 0 0 Z " fill="#B4F1F2" transform="translate(374,414)"/>
<path d="M0 0 C1.60495567 0.11442461 3.20898119 0.24194694 4.8125 0.375 C5.70582031 0.44460938 6.59914062 0.51421875 7.51953125 0.5859375 C10 1 10 1 13 3 C15.33010909 3.67784992 17.66359824 4.34416793 20 5 C23.4322125 6.33474931 24.96116841 7.94175262 27 11 C22.62308567 10.31243875 18.699172 8.802119 14.625 7.125 C13.99078125 6.86847656 13.3565625 6.61195313 12.703125 6.34765625 C8.44542681 4.61850943 4.21926444 2.82071618 0 1 C0 0.67 0 0.34 0 0 Z " fill="#96E8EB" transform="translate(172,446)"/>
<path d="M0 0 C1.26059451 3.78178354 0.54183 4.5109119 -1.1875 8 C-3.84116216 13.55193563 -5.98802289 19.18887058 -8 25 C-8.33 25 -8.66 25 -9 25 C-9.05422947 23.5629191 -9.09289723 22.12524538 -9.125 20.6875 C-9.14820313 19.88699219 -9.17140625 19.08648437 -9.1953125 18.26171875 C-9 16 -9 16 -7 13 C-7.66 13 -8.32 13 -9 13 C-9 12.34 -9 11.68 -9 11 C-8.34 11 -7.68 11 -7 11 C-6.67 10.34 -6.34 9.68 -6 9 C-5.34 8.67 -4.68 8.34 -4 8 C-2.87775145 6.11986894 -2.87775145 6.11986894 -1.875 3.9375 C-1.34519531 2.83728516 -1.34519531 2.83728516 -0.8046875 1.71484375 C-0.53914063 1.14894531 -0.27359375 0.58304687 0 0 Z " fill="#8EE5E7" transform="translate(436,264)"/>
<path d="M0 0 C2.36920152 4.73840304 -0.55300591 11.20683208 -2 16 C-3.05163416 19.55997638 -3.3036923 23.05274717 -3.5625 26.75 C-3.64628906 27.92046875 -3.73007812 29.0909375 -3.81640625 30.296875 C-3.87699219 31.18890625 -3.93757813 32.0809375 -4 33 C-4.33 33 -4.66 33 -5 33 C-6.03194763 9.00483611 -6.03194763 9.00483611 0 0 Z " fill="#70DBDE" transform="translate(25,324)"/>
<path d="M0 0 C4.73259996 0.59067458 8.58646591 1.94227547 12.9375 3.875 C14.10152344 4.38804688 15.26554687 4.90109375 16.46484375 5.4296875 C17.63144531 5.94789062 18.79804688 6.46609375 20 7 C22.33048008 8.006822 24.6648937 9.00392656 27 10 C24.30576953 11.34711524 22.75991507 10.52298622 19.98828125 9.66796875 C16.62262079 8.53726553 13.31269513 7.27604765 10 6 C8.54200267 5.45742957 7.08367742 4.91573937 5.625 4.375 C2 3 2 3 0 2 C0 1.34 0 0.68 0 0 Z " fill="#99E6E8" transform="translate(281,13)"/>
<path d="M0 0 C2.31 0 4.62 0 7 0 C7.66 2.31 8.32 4.62 9 7 C11.31 7.33 13.62 7.66 16 8 C16 8.66 16 9.32 16 10 C16.66 10 17.32 10 18 10 C18.33 10.99 18.66 11.98 19 13 C11.33245652 11.03396321 4.45416457 6.5844172 0 0 Z " fill="#91E6E9" transform="translate(32,383)"/>
<path d="M0 0 C12.84435604 1.01939334 12.84435604 1.01939334 18 4 C18.75 6.10546875 18.75 6.10546875 19 8 C12.54646385 5.94235079 6.2638737 3.57616518 0 1 C0 0.67 0 0.34 0 0 Z " fill="#9DE9EC" transform="translate(83,409)"/>
<path d="M0 0 C5.26053037 -0.31563182 8.44573816 0.33409063 13 3 C13 3.66 13 4.32 13 5 C14.0725 5.0825 15.145 5.165 16.25 5.25 C20.2738451 6.05476902 21.48169253 6.87729874 24 10 C20.56506424 9.40227336 17.55768504 8.52472216 14.35546875 7.15234375 C13.51435547 6.79462891 12.67324219 6.43691406 11.80664062 6.06835938 C10.51016602 5.50858398 10.51016602 5.50858398 9.1875 4.9375 C8.30384766 4.56044922 7.42019531 4.18339844 6.50976562 3.79492188 C4.33798876 2.86751446 2.16818633 1.93576366 0 1 C0 0.67 0 0.34 0 0 Z " fill="#9CE9EA" transform="translate(141,433)"/>
<path d="M0 0 C0.66 0.33 1.32 0.66 2 1 C-0.19851951 9.36980236 -3.49070196 17.11827559 -7 25 C-8.41687119 20.74938644 -7.19320039 18.28148375 -6 14 C-5.34 14 -4.68 14 -4 14 C-3.814375 12.700625 -3.814375 12.700625 -3.625 11.375 C-2.88361866 7.37154078 -1.82419097 3.64838195 0 0 Z " fill="#AAECED" transform="translate(417,307)"/>
<path d="M0 0 C1.17189558 3.51568674 0.83725505 3.9991852 -0.65234375 7.23046875 C-1.01650391 8.03291016 -1.38066406 8.83535156 -1.75585938 9.66210938 C-2.34077148 10.91217773 -2.34077148 10.91217773 -2.9375 12.1875 C-3.32357422 13.03248047 -3.70964844 13.87746094 -4.10742188 14.74804688 C-5.06300701 16.83617735 -6.02743783 18.91973604 -7 21 C-7.66 20.67 -8.32 20.34 -9 20 C-8.40266451 17.95632428 -7.79680343 15.91513957 -7.1875 13.875 C-6.85105469 12.73804688 -6.51460938 11.60109375 -6.16796875 10.4296875 C-3.15305422 1.57652711 -3.15305422 1.57652711 0 0 Z " fill="#91E5E5" transform="translate(358,453)"/>
<path d="M0 0 C8.43406488 -0.76673317 13.44646283 2.31671683 20.0625 7.3125 C20.701875 7.869375 21.34125 8.42625 22 9 C17.93834644 8.31673118 14.28147439 7.09488592 10.4375 5.625 C9.32246094 5.20476562 8.20742187 4.78453125 7.05859375 4.3515625 C4.3297769 3.14572517 2.27581371 1.90300315 0 0 Z " fill="#A5ECEC" transform="translate(102,417)"/>
<path d="M0 0 C0.33 0.99 0.66 1.98 1 3 C-2.6630401 7.67764998 -2.6630401 7.67764998 -6.10009766 8.50634766 C-8.51306547 8.71456302 -10.89072727 8.79529719 -13.3125 8.8125 C-14.14845703 8.83763672 -14.98441406 8.86277344 -15.84570312 8.88867188 C-17.89663409 8.9472699 -19.94836593 8.97656493 -22 9 C-19.29519691 7.19679794 -18.09210263 6.64743394 -15.05859375 6.03515625 C-14.31029297 5.87466797 -13.56199219 5.71417969 -12.79101562 5.54882812 C-11.21902655 5.22399387 -9.64609344 4.90369588 -8.07226562 4.58789062 C-3.19395441 3.65383407 -3.19395441 3.65383407 0 0 Z " fill="#B0EFEF" transform="translate(140,177)"/>
<path d="M0 0 C6.35566799 -0.45397629 10.6790627 0.37931623 16 4 C18 6.25 18 6.25 19 8 C15.32388485 7.1941521 11.88888618 5.89904587 8.375 4.5625 C7.22773438 4.13066406 6.08046875 3.69882812 4.8984375 3.25390625 C2 2 2 2 0 0 Z " fill="#A3EBEB" transform="translate(199,457)"/>
<path d="M0 0 C3.63 0.33 7.26 0.66 11 1 C11 1.66 11 2.32 11 3 C11.8971875 3.2165625 11.8971875 3.2165625 12.8125 3.4375 C14.56150404 3.8872439 16.28677023 4.42892341 18 5 C18.33 5.99 18.66 6.98 19 8 C14.87457432 7.3098442 11.1548707 6.05112152 7.25 4.5625 C6.10015625 4.13066406 4.9503125 3.69882812 3.765625 3.25390625 C1 2 1 2 0 0 Z " fill="#A4EBED" transform="translate(245,476)"/>
<path d="M0 0 C0.33 0 0.66 0 1 0 C1.29296875 6.0546875 1.29296875 6.0546875 1 8 C0.01 8.66 -0.98 9.32 -2 10 C-2.9011261 12.08171404 -2.9011261 12.08171404 -3.5 14.4375 C-4.43385981 17.81162442 -5.33141241 19.69463683 -8 22 C-7.29807915 17.06678166 -5.36469225 12.74025318 -3.4375 8.1875 C-3.10814453 7.39923828 -2.77878906 6.61097656 -2.43945312 5.79882812 C-1.63041094 3.86416204 -0.81576148 1.93184247 0 0 Z " fill="#B2EFF0" transform="translate(71,212)"/>
<path d="M0 0 C0.33 0 0.66 0 1 0 C1.78459533 6.14599676 -0.01354504 9.24423545 -3.4921875 14.27734375 C-3.98976562 14.84582031 -4.48734375 15.41429687 -5 16 C-5.66 16 -6.32 16 -7 16 C-5.26017005 10.18738629 -3.1889511 5.16830006 0 0 Z " fill="#A0EBEB" transform="translate(204,25)"/>
<path d="M0 0 C4.12542568 0.6901558 7.8451293 1.94887848 11.75 3.4375 C13.47476562 4.08525391 13.47476562 4.08525391 15.234375 4.74609375 C18 6 18 6 19 8 C11.79749803 7.1011656 6.04774539 6.12346276 0 2 C0 1.34 0 0.68 0 0 Z " fill="#99E7EC" transform="translate(262,5)"/>
<path d="M0 0 C0.33 0 0.66 0 1 0 C1.65499928 5.0762444 -0.3655219 9.73549365 -3 14 C-3.99 14.33 -4.98 14.66 -6 15 C-6 12.36 -6 9.72 -6 7 C-5.01 6.67 -4.02 6.34 -3 6 C-1.29144978 2.99992729 -1.29144978 2.99992729 0 0 Z " fill="#8CE4E6" transform="translate(408,330)"/>
<path d="M0 0 C1.51183868 3.9249658 0.46099883 6.76930452 -0.75 10.6875 C-1.09546875 11.84636719 -1.4409375 13.00523437 -1.796875 14.19921875 C-2.19390625 15.12347656 -2.5909375 16.04773438 -3 17 C-3.99 17.33 -4.98 17.66 -6 18 C-5.41347648 13.51006131 -4.2356462 9.77456816 -2.4375 5.625 C-1.98246094 4.56539062 -1.52742188 3.50578125 -1.05859375 2.4140625 C-0.70925781 1.61742187 -0.35992187 0.82078125 0 0 Z " fill="#A4EBEB" transform="translate(56,248)"/>
<path d="M0 0 C0.66 0.33 1.32 0.66 2 1 C1.67 1.99 1.34 2.98 1 4 C0.01 4 -0.98 4 -2 4 C-2 4.66 -2 5.32 -2 6 C-2.66 6 -3.32 6 -4 6 C-4 6.99 -4 7.98 -4 9 C-5.75 10.38671875 -5.75 10.38671875 -8 11.6875 C-9.11375 12.34298828 -9.11375 12.34298828 -10.25 13.01171875 C-10.8275 13.33785156 -11.405 13.66398437 -12 14 C-9.20039902 8.06842531 -5.22738263 3.88319853 0 0 Z " fill="#ACECEE" transform="translate(217,11)"/>
<path d="M0 0 C0.99 0 1.98 0 3 0 C1.56176509 5.63308675 -0.54144009 10.73677223 -3 16 C-3.33 16 -3.66 16 -4 16 C-3.67 12.04 -3.34 8.08 -3 4 C-2.34 4 -1.68 4 -1 4 C-0.67 2.68 -0.34 1.36 0 0 Z " fill="#98EAEB" transform="translate(475,166)"/>
<path d="M0 0 C5.84768068 0.52211435 10.63698985 1.55371467 16 4 C16.33 4.99 16.66 5.98 17 7 C12.94180817 6.34496718 9.46028718 5.05440879 5.6875 3.4375 C4.61886719 2.98246094 3.55023438 2.52742188 2.44921875 2.05859375 C1.64097656 1.70925781 0.83273438 1.35992187 0 1 C0 0.67 0 0.34 0 0 Z " fill="#ADEBEE" transform="translate(124,426)"/>
<path d="M0 0 C6.19518473 0.41588046 11.26689311 1.60251894 17 4 C17 4.99 17 5.98 17 7 C11.14340094 5.33846988 5.5409866 3.52958084 0 1 C0 0.67 0 0.34 0 0 Z " fill="#ACEDEF" transform="translate(51,396)"/>
<path d="M0 0 C1.31622874 3.94868623 0.30180315 5.35071376 -1.3125 9.125 C-1.76238281 10.20007813 -2.21226562 11.27515625 -2.67578125 12.3828125 C-4 15 -4 15 -6 16 C-5.34 12.04 -4.68 8.08 -4 4 C-3.01 4 -2.02 4 -1 4 C-0.67 2.68 -0.34 1.36 0 0 Z " fill="#ABEDEF" transform="translate(456,216)"/>
<path d="M0 0 C1.19908285 3.46848797 0.78945844 5.59994812 -0.3125 9.0625 C-0.57675781 9.91972656 -0.84101563 10.77695313 -1.11328125 11.66015625 C-2 14 -2 14 -4 17 C-4.66 17 -5.32 17 -6 17 C-5.19534869 13.26345828 -3.82425115 9.80577218 -2.4375 6.25 C-1.98246094 5.07953125 -1.52742187 3.9090625 -1.05859375 2.703125 C-0.53458984 1.36507812 -0.53458984 1.36507812 0 0 Z " fill="#A7EDEC" transform="translate(147,160)"/>
<path d="M0 0 C3.61055091 0.76242216 6.85834625 2.12473374 10.25 3.5625 C11.32765625 4.01753906 12.4053125 4.47257812 13.515625 4.94140625 C14.33546875 5.29074219 15.1553125 5.64007813 16 6 C12.17162942 7.91418529 7.00235964 5.31990201 3.0625 4.0625 C1 3 1 3 0 0 Z " fill="#AFEEF1" transform="translate(413,67)"/>
<path d="M0 0 C2 3 2 3 2 7 C1.01 7.495 1.01 7.495 0 8 C-0.33 8.99 -0.66 9.98 -1 11 C-3.0625 12.6875 -3.0625 12.6875 -5 14 C-4.28269264 10.76834156 -3.18684926 7.81292078 -1.9375 4.75 C-1.57527344 3.85796875 -1.21304688 2.9659375 -0.83984375 2.046875 C-0.56269531 1.37140625 -0.28554687 0.6959375 0 0 Z " fill="#9EEAEC" transform="translate(178,86)"/>
<path d="M0 0 C1.34155445 4.02466335 0.22380042 5.72149865 -1.3125 9.625 C-1.76238281 10.79289062 -2.21226562 11.96078125 -2.67578125 13.1640625 C-4 16 -4 16 -6 17 C-5.34 13.04 -4.68 9.08 -4 5 C-3.01 5 -2.02 5 -1 5 C-0.67 3.35 -0.34 1.7 0 0 Z " fill="#B4F0F2" transform="translate(443,247)"/>
<path d="M0 0 C0.99 0.33 1.98 0.66 3 1 C2.34 1 1.68 1 1 1 C0.67 1.99 0.34 2.98 0 4 C-6.02694363 7.18404569 -6.02694363 7.18404569 -9.23046875 6.578125 C-9.81441406 6.38734375 -10.39835937 6.1965625 -11 6 C-9.54195831 5.18697675 -8.08355685 4.37459869 -6.625 3.5625 C-5.40683594 2.88380859 -5.40683594 2.88380859 -4.1640625 2.19140625 C-2.79003378 1.4349464 -1.40290739 0.70145369 0 0 Z " fill="#A3EAEC" transform="translate(97,190)"/>
<path d="M0 0 C2.64 0.33 5.28 0.66 8 1 C8 1.66 8 2.32 8 3 C9.98 3.66 11.96 4.32 14 5 C10.48926273 6.17024576 8.58876152 5.67289278 5 5 C4.01 5 3.02 5 2 5 C2 3.68 2 2.36 2 1 C1.34 0.67 0.68 0.34 0 0 Z " fill="#77DEE3" transform="translate(424,73)"/>
<path d="M0 0 C1.05794002 3.62400731 0.80092653 4.68250377 -1 8 C-1.28875 9.155 -1.5775 10.31 -1.875 11.5 C-3.03718712 15.11569326 -4.12770574 16.60642145 -7 19 C-6.05025422 14.9172754 -4.51535829 11.1232577 -2.9375 7.25 C-2.65583984 6.55261719 -2.37417969 5.85523437 -2.08398438 5.13671875 C-1.39166819 3.42352955 -0.69615002 1.71163491 0 0 Z " fill="#BEF2F3" transform="translate(186,66)"/>
<path d="M0 0 C1.41702513 0.14230808 2.8336096 0.28900746 4.25 0.4375 C5.43335938 0.55931641 5.43335938 0.55931641 6.640625 0.68359375 C8.82364639 0.97634993 10.8773182 1.42064419 13 2 C13.33 3.32 13.66 4.64 14 6 C9.27934033 4.45730076 4.58335908 2.92205381 0 1 C0 0.67 0 0.34 0 0 Z " fill="#A8EDEE" transform="translate(218,465)"/>
<path d="M0 0 C0.66 0.66 1.32 1.32 2 2 C1.72832465 6.79959781 0.74562195 10.06062938 -2 14 C-3.10844919 10.67465243 -2.84454356 8.37817425 -2 5 C-1.34 5 -0.68 5 0 5 C0 3.35 0 1.7 0 0 Z " fill="#9CE8E9" transform="translate(395,358)"/>
<path d="M0 0 C1.305239 3.91571701 0.32239848 5.03892997 -1.4375 8.6875 C-1.91058594 9.68136719 -2.38367188 10.67523438 -2.87109375 11.69921875 C-3.42990234 12.83810547 -3.42990234 12.83810547 -4 14 C-4.33 14 -4.66 14 -5 14 C-5.29310345 6.37931034 -5.29310345 6.37931034 -3 3 C-1.375 1.25 -1.375 1.25 0 0 Z " fill="#A6EBEE" transform="translate(449,233)"/>
<path d="M0 0 C0 0.66 0 1.32 0 2 C-5.36095333 3.12862175 -10.55306686 3.09688221 -16 3 C-13.37109503 1.60926232 -10.87877953 0.56030796 -8 -0.1875 C-7.34 -0.36667969 -6.68 -0.54585937 -6 -0.73046875 C-3.73459024 -1.03576811 -2.164908 -0.68136613 0 0 Z " fill="#A8ECEE" transform="translate(116,187)"/>
<path d="M0 0 C4.12172083 3.76843047 7.63068221 7.88904305 10 13 C9.67 13.66 9.34 14.32 9 15 C8.34 14.34 7.68 13.68 7 13 C7 12.01 7 11.02 7 10 C6.38125 9.95875 5.7625 9.9175 5.125 9.875 C4.073125 9.441875 4.073125 9.441875 3 9 C1.8125 6.125 1.8125 6.125 1 3 C0.67 2.01 0.34 1.02 0 0 Z " fill="#B2F0F1" transform="translate(474,97)"/>
<path d="M0 0 C1.5843317 0.08768248 3.16753567 0.19587329 4.75 0.3125 C6.07257813 0.39951172 6.07257813 0.39951172 7.421875 0.48828125 C10.35415446 1.07029429 11.8402919 1.95635098 14 4 C14 4.66 14 5.32 14 6 C9.1008651 4.70022952 4.62440425 3.07626313 0 1 C0 0.67 0 0.34 0 0 Z " fill="#A6ECEE" transform="translate(172,446)"/>
<path d="M0 0 C0.33 0 0.66 0 1 0 C0.59683075 6.31631828 -1.71232131 10.64993984 -5 16 C-6.39211215 11.82366356 -4.9535579 10.21039485 -3.0625 6.3125 C-2.49660156 5.13300781 -1.93070313 3.95351563 -1.34765625 2.73828125 C-0.90292969 1.83464844 -0.45820312 0.93101562 0 0 Z " fill="#B4F0F2" transform="translate(49,266)"/>
<path d="M0 0 C0.99 0 1.98 0 3 0 C2.34580901 5.06998019 0.1453591 9.41990777 -2 14 C-3.43088528 11.13822943 -2.59991697 9.06624227 -2 6 C-1.34 6 -0.68 6 0 6 C0 4.02 0 2.04 0 0 Z " fill="#ACEDF0" transform="translate(378,400)"/>
<path d="M0 0 C4.455 0.99 4.455 0.99 9 2 C9 2.66 9 3.32 9 4 C9.66 4 10.32 4 11 4 C11.33 4.99 11.66 5.98 12 7 C7.39104317 5.68315519 3.85859765 3.84801255 0 1 C0 0.67 0 0.34 0 0 Z " fill="#A0EBEC" transform="translate(39,389)"/>
<path d="M0 0 C1.53445094 3.06890187 0.54984289 5.70094266 0 9 C-0.99 9.33 -1.98 9.66 -3 10 C-3.73323796 12.01508358 -3.73323796 12.01508358 -4 14 C-5.305239 10.08428299 -4.32239848 8.96107003 -2.5625 5.3125 C-2.08941406 4.31863281 -1.61632812 3.32476562 -1.12890625 2.30078125 C-0.75636719 1.54152344 -0.38382813 0.78226562 0 0 Z " fill="#A9EEF0" transform="translate(25,324)"/>
<path d="M0 0 C5.09448798 0.43173627 8.84512277 0.75400216 13 4 C13 4.66 13 5.32 13 6 C8.31479085 4.78184562 4.29456388 3.30440013 0 1 C0 0.67 0 0.34 0 0 Z " fill="#A9EBEC" transform="translate(69,403)"/>
<path d="M0 0 C1.32 0.33 2.64 0.66 4 1 C2.59248779 1.86916887 1.1735479 2.71985149 -0.25 3.5625 C-1.03890625 4.03816406 -1.8278125 4.51382812 -2.640625 5.00390625 C-5.30844625 6.13022151 -6.34501768 6.0169313 -9 5 C-8.01 5 -7.02 5 -6 5 C-6 4.01 -6 3.02 -6 2 C-4.02 2 -2.04 2 0 2 C0 1.34 0 0.68 0 0 Z " fill="#A8EBED" transform="translate(331,489)"/>
<path d="M0 0 C0.66 0 1.32 0 2 0 C1.44271087 3.34373475 0.64826111 6.03312999 -1 9 C-1.66 9 -2.32 9 -3 9 C-2.67 7.02 -2.34 5.04 -2 3 C-1.34 3 -0.68 3 0 3 C0 2.01 0 1.02 0 0 Z " fill="#99E8E9" transform="translate(383,390)"/>
<path d="M0 0 C1 2 1 2 0.22265625 4.3828125 C-0.16019531 5.28773438 -0.54304688 6.19265625 -0.9375 7.125 C-1.31777344 8.03507812 -1.69804687 8.94515625 -2.08984375 9.8828125 C-2.39019531 10.58148438 -2.69054687 11.28015625 -3 12 C-3.33 12 -3.66 12 -4 12 C-4 9.36 -4 6.72 -4 4 C-3.01 4 -2.02 4 -1 4 C-0.67 2.68 -0.34 1.36 0 0 Z " fill="#AAEDEF" transform="translate(423,296)"/>
<path d="M0 0 C2.475 0.99 2.475 0.99 5 2 C5 2.66 5 3.32 5 4 C5.9590625 4.433125 5.9590625 4.433125 6.9375 4.875 C9 6 9 6 10 8 C8.68 7.67 7.36 7.34 6 7 C6 6.34 6 5.68 6 5 C4.35 4.67 2.7 4.34 1 4 C0.67 2.68 0.34 1.36 0 0 Z " fill="#ADEDED" transform="translate(464,89)"/>
<path d="M0 0 C2.84550012 0.66010476 5.52325999 1.51724966 8.25 2.5625 C8.95640625 2.83191406 9.6628125 3.10132813 10.390625 3.37890625 C10.92171875 3.58386719 11.4528125 3.78882813 12 4 C12 4.33 12 4.66 12 5 C8.7 4.67 5.4 4.34 2 4 C2 3.01 2 2.02 2 1 C1.34 0.67 0.68 0.34 0 0 Z " fill="#A4ECEB" transform="translate(340,37)"/>
<path d="M0 0 C5.06998019 0.65419099 9.41990777 2.8546409 14 5 C12 6 12 6 8.6875 5.3125 C5.03828062 4.0136253 2.84159743 2.58327039 0 0 Z " fill="#BAF4F2" transform="translate(294,18)"/>
<path d="M0 0 C-1.2065625 0.4021875 -1.2065625 0.4021875 -2.4375 0.8125 C-3.283125 1.204375 -4.12875 1.59625 -5 2 C-5.33 2.99 -5.66 3.98 -6 5 C-7.98 5 -9.96 5 -12 5 C-8.77464852 1.23708994 -4.90542108 -1.63514036 0 0 Z " fill="#B2F1F1" transform="translate(231,6)"/>
<path d="M0 0 C7.38461538 0.49230769 7.38461538 0.49230769 10.5 3.0625 C10.995 3.701875 11.49 4.34125 12 5 C7.61110675 4.33501617 4.0188515 2.81242323 0 1 C0 0.67 0 0.34 0 0 Z " fill="#BDF2F4" transform="translate(153,438)"/>
<path d="M0 0 C2.76276177 0.52268466 5.3260876 1.10869587 8 2 C8 2.66 8 3.32 8 4 C5.69 3.67 3.38 3.34 1 3 C0.67 2.01 0.34 1.02 0 0 Z " fill="#94E5E9" transform="translate(280,489)"/>
<path d="M0 0 C1.21386936 3.64160808 0.6674695 4.33165469 -0.9375 7.6875 C-1.31777344 8.49574219 -1.69804687 9.30398438 -2.08984375 10.13671875 C-2.39019531 10.75160156 -2.69054687 11.36648438 -3 12 C-4.0516399 8.84508031 -3.98032423 7.96644412 -3.1875 4.875 C-3.01605469 4.17117188 -2.84460938 3.46734375 -2.66796875 2.7421875 C-2 1 -2 1 0 0 Z " fill="#BBF1F3" transform="translate(358,453)"/>
<path d="M0 0 C0.99 0 1.98 0 3 0 C2.47535095 4.61691161 1.92509086 6.09987886 -1 10 C-0.67 6.7 -0.34 3.4 0 0 Z " fill="#AAEEEE" transform="translate(386,380)"/>
<path d="M0 0 C0.33 0 0.66 0 1 0 C1 2.64 1 5.28 1 8 C0.01 8.33 -0.98 8.66 -2 9 C-1.125 2.25 -1.125 2.25 0 0 Z " fill="#A3E9EB" transform="translate(71,212)"/>
<path d="M0 0 C1.29227216 4.18142349 0.54613006 6.90275533 -1 11 C-1.99 11.33 -2.98 11.66 -4 12 C-3.33989524 9.15449988 -2.48275034 6.47674001 -1.4375 3.75 C-1.16808594 3.04359375 -0.89867187 2.3371875 -0.62109375 1.609375 C-0.41613281 1.07828125 -0.21117187 0.5471875 0 0 Z " fill="#BBF2F3" transform="translate(196,42)"/>
<path d="M0 0 C0.66 0 1.32 0 2 0 C1.38722388 2.96175123 0.74627478 4.38058783 -1 7 C-1.66 7 -2.32 7 -3 7 C-3 5.68 -3 4.36 -3 3 C-2.34 3 -1.68 3 -1 3 C-0.67 2.01 -0.34 1.02 0 0 Z " fill="#A7EAEB" transform="translate(347,474)"/>
<path d="M0 0 C0.95465783 2.16967689 1.14401212 3.56328793 0.3984375 5.82421875 C-0.35870385 7.5684743 -1.17609198 9.28627131 -2 11 C-2.33 11 -2.66 11 -3 11 C-3 8.69 -3 6.38 -3 4 C-2.01 3.67 -1.02 3.34 0 3 C0 2.01 0 1.02 0 0 Z " fill="#B1EEEF" transform="translate(430,278)"/>
<path d="M0 0 C2.97 0.99 5.94 1.98 9 3 C5.52176885 4.15941038 3.54104422 3.70820884 0 3 C0 2.01 0 1.02 0 0 Z " fill="#A0EDED" transform="translate(309,24)"/>
<path d="M0 0 C0.33 0 0.66 0 1 0 C1.25 2.8125 1.25 2.8125 1 6 C-1 7.875 -1 7.875 -3 9 C-2.44271087 5.65626525 -1.64826111 2.96687001 0 0 Z " fill="#BCF2F1" transform="translate(60,239)"/>
<path d="M0 0 C2.475 0.495 2.475 0.495 5 1 C5 1.66 5 2.32 5 3 C6.32 3.66 7.64 4.32 9 5 C6.03 4.505 6.03 4.505 3 4 C2.67 3.01 2.34 2.02 2 1 C1.34 0.67 0.68 0.34 0 0 Z " fill="#91E5E7" transform="translate(318,28)"/>
<path d="M0 0 C3.55780196 0.60990891 6.6828589 1.5783681 10 3 C6.06329512 4.31223496 3.87511856 3.24296256 0 2 C0 1.34 0 0.68 0 0 Z " fill="#B1EEF1" transform="translate(262,5)"/>
</svg>
